<?xml version="1.0" encoding="utf-8"?>
<!-- Generator: Adobe Illustrator 15.1.0, SVG Export Plug-In . SVG Version: 6.00 Build 0)  -->
<!DOCTYPE svg PUBLIC "-//W3C//DTD SVG 1.1//EN" "http://www.w3.org/Graphics/SVG/1.1/DTD/svg11.dtd">
<svg version="1.1" id="Layer_1" xmlns="http://www.w3.org/2000/svg" xmlns:xlink="http://www.w3.org/1999/xlink" x="0px" y="0px"
	 width="72.43px" height="96.099px" viewBox="0 0 72.43 96.099" enable-background="new 0 0 72.43 96.099" xml:space="preserve">
<g>
	<defs>
		<rect id="SVGID_1_" y="0" width="72.429" height="96.099"/>
	</defs>
	<clipPath id="SVGID_2_">
		<use xlink:href="#SVGID_1_"  overflow="visible"/>
	</clipPath>
	<path clip-path="url(#SVGID_2_)" fill="#FFFFFF" d="M35.7,90.186C20.542,72.329,9.14,52.304,1.129,30.321
		C-5.148,13.097,16.714,4.653,18.422,8.997L28.1,32.081c0.206,0.489-4.795,6.509-5.638,7.285
		c-1.635,1.503,13.925,28.483,16.069,27.81c1.092-0.343,8.786-1.653,9.117-1.238L62.8,85.86
		C65.732,89.544,47.527,104.119,35.7,90.186 M65.021,61.923c9.877-19.225,9.877-42.699,0-61.923L54.798,4.57
		c8.646,16.399,8.646,36.383,0,52.781L65.021,61.923z M36.643,47.536l4.27,1.909l6.215,2.778c7.237-13.143,7.237-29.381,0-42.524
		l-6.215,2.777l-4.27,1.91C42.626,24.543,42.626,37.379,36.643,47.536"/>
</g>
</svg>
